<svg id="visual" viewBox="0 0 1920 100" width="1920" height="100" xmlns="http://www.w3.org/2000/svg" xmlns:xlink="http://www.w3.org/1999/xlink" version="1.1"><path d="M0 13L83 31L167 30L250 66L334 24L417 48L501 19L584 18L668 66L751 48L835 12L918 70L1002 55L1085 29L1169 33L1252 12L1336 57L1419 50L1503 71L1586 58L1670 47L1753 11L1837 50L1920 37L1920 101L1837 101L1753 101L1670 101L1586 101L1503 101L1419 101L1336 101L1252 101L1169 101L1085 101L1002 101L918 101L835 101L751 101L668 101L584 101L501 101L417 101L334 101L250 101L167 101L83 101L0 101Z" fill="#6142fb"></path><path d="M0 79L83 75L167 81L250 76L334 44L417 47L501 86L584 73L668 41L751 53L835 60L918 68L1002 80L1085 86L1169 65L1252 56L1336 40L1419 80L1503 46L1586 52L1670 42L1753 70L1837 86L1920 85L1920 101L1837 101L1753 101L1670 101L1586 101L1503 101L1419 101L1336 101L1252 101L1169 101L1085 101L1002 101L918 101L835 101L751 101L668 101L584 101L501 101L417 101L334 101L250 101L167 101L83 101L0 101Z" fill="#eae8f7"></path></svg>