<svg id="visual" viewBox="0 0 1920 800" width="1920" height="800" xmlns="http://www.w3.org/2000/svg"
    xmlns:xlink="http://www.w3.org/1999/xlink" version="1.1">
    <path
        d="M0 206L113 158L226 115L339 150L452 101L565 254L678 236L791 166L904 192L1016 203L1129 250L1242 246L1355 161L1468 246L1581 268L1694 107L1807 128L1920 270L1920 0L1807 0L1694 0L1581 0L1468 0L1355 0L1242 0L1129 0L1016 0L904 0L791 0L678 0L565 0L452 0L339 0L226 0L113 0L0 0Z"
        fill="#ff7f98"></path>
    <path
        d="M0 71L113 161L226 56L339 37L452 146L565 141L678 71L791 134L904 138L1016 81L1129 61L1242 114L1355 74L1468 50L1581 171L1694 127L1807 158L1920 59L1920 0L1807 0L1694 0L1581 0L1468 0L1355 0L1242 0L1129 0L1016 0L904 0L791 0L678 0L565 0L452 0L339 0L226 0L113 0L0 0Z"
        fill="#530066"></path>
</svg>