<svg id="visual" viewBox="0 0 1920 400" width="1920" height="400" xmlns="http://www.w3.org/2000/svg" xmlns:xlink="http://www.w3.org/1999/xlink" version="1.1"><path d="M0 142L101 259L202 365L303 313L404 77L505 328L606 241L707 360L808 382L909 140L1011 294L1112 341L1213 108L1314 160L1415 184L1516 360L1617 329L1718 322L1819 159L1920 375L1920 0L1819 0L1718 0L1617 0L1516 0L1415 0L1314 0L1213 0L1112 0L1011 0L909 0L808 0L707 0L606 0L505 0L404 0L303 0L202 0L101 0L0 0Z" fill="#452bbd"></path><path d="M0 201L101 207L202 224L303 52L404 72L505 206L606 20L707 27L808 213L909 19L1011 224L1112 54L1213 35L1314 39L1415 178L1516 111L1617 141L1718 170L1819 81L1920 108L1920 0L1819 0L1718 0L1617 0L1516 0L1415 0L1314 0L1213 0L1112 0L1011 0L909 0L808 0L707 0L606 0L505 0L404 0L303 0L202 0L101 0L0 0Z" fill="#452bbd"></path></svg>