<svg id="visual" viewBox="0 0 1920 100" width="1920" height="100" xmlns="http://www.w3.org/2000/svg" xmlns:xlink="http://www.w3.org/1999/xlink" version="1.1"><path d="M0 43L101 52L202 66L303 21L404 13L505 33L606 61L707 36L808 63L909 23L1011 35L1112 59L1213 75L1314 43L1415 79L1516 38L1617 61L1718 34L1819 21L1920 22L1920 0L1819 0L1718 0L1617 0L1516 0L1415 0L1314 0L1213 0L1112 0L1011 0L909 0L808 0L707 0L606 0L505 0L404 0L303 0L202 0L101 0L0 0Z" fill="#eae8f7"></path><path d="M0 34L101 31L202 33L303 14L404 21L505 32L606 36L707 39L808 31L909 32L1011 48L1112 4L1213 19L1314 18L1415 30L1516 26L1617 5L1718 47L1819 35L1920 21L1920 0L1819 0L1718 0L1617 0L1516 0L1415 0L1314 0L1213 0L1112 0L1011 0L909 0L808 0L707 0L606 0L505 0L404 0L303 0L202 0L101 0L0 0Z" fill="#280031"></path></svg>