<svg id="visual" viewBox="0 0 1920 400" width="1920" height="400" xmlns="http://www.w3.org/2000/svg" xmlns:xlink="http://www.w3.org/1999/xlink" version="1.1"><path d="M0 266L101 93L202 70L303 115L404 180L505 331L606 100L707 25L808 244L909 284L1011 186L1112 51L1213 97L1314 202L1415 216L1516 72L1617 246L1718 52L1819 194L1920 211L1920 401L1819 401L1718 401L1617 401L1516 401L1415 401L1314 401L1213 401L1112 401L1011 401L909 401L808 401L707 401L606 401L505 401L404 401L303 401L202 401L101 401L0 401Z" fill="#452bbd"></path><path d="M0 165L101 289L202 343L303 228L404 285L505 308L606 238L707 295L808 398L909 333L1011 334L1112 282L1213 309L1314 231L1415 285L1516 328L1617 349L1718 270L1819 200L1920 317L1920 401L1819 401L1718 401L1617 401L1516 401L1415 401L1314 401L1213 401L1112 401L1011 401L909 401L808 401L707 401L606 401L505 401L404 401L303 401L202 401L101 401L0 401Z" fill="#452bbd"></path></svg>